<svg width="40" height="40" viewBox="0 0 40 40" fill="none" xmlns="http://www.w3.org/2000/svg">
  <rect width="40" height="40" rx="8" fill="#f3f4f6"/>
  <path d="M20 12C16.6863 12 14 14.6863 14 18V22C14 25.3137 16.6863 28 20 28C23.3137 28 26 25.3137 26 22V18C26 14.6863 23.3137 12 20 12Z" fill="#9ca3af"/>
  <path d="M20 16C18.8954 16 18 16.8954 18 18V22C18 23.1046 18.8954 24 20 24C21.1046 24 22 23.1046 22 22V18C22 16.8954 21.1046 16 20 16Z" fill="#6b7280"/>
  <text x="20" y="33" text-anchor="middle" font-family="Arial, sans-serif" font-size="8" fill="#6b7280">TEAM</text>
</svg>